<svg width="22" height="19" viewBox="0 0 22 19" fill="none" xmlns="http://www.w3.org/2000/svg">
<g clip-path="url(#clip0_2_30)">
<path d="M13.1923 0C12.6109 0 12.0532 0.230975 11.6421 0.642112C11.231 1.05325 11 1.61087 11 2.19231V5.11538C11.0001 5.56869 11.1406 6.01083 11.4024 6.38093C11.6641 6.75103 12.0342 7.0309 12.4615 7.182V8.76923C12.4616 8.90809 12.5012 9.04406 12.5757 9.16121C12.6503 9.27837 12.7566 9.37187 12.8824 9.43076C13.0081 9.48964 13.1481 9.51149 13.2858 9.49372C13.4235 9.47596 13.5533 9.41933 13.66 9.33046L16.0861 7.30769H19.0385C19.6199 7.30769 20.1775 7.07672 20.5887 6.66558C20.9998 6.25444 21.2308 5.69682 21.2308 5.11538V2.19231C21.2308 1.61087 20.9998 1.05325 20.5887 0.642112C20.1775 0.230975 19.6199 0 19.0385 0H13.1923ZM12.4615 2.19231C12.4615 1.9985 12.5385 1.81262 12.6756 1.67558C12.8126 1.53853 12.9985 1.46154 13.1923 1.46154H19.0385C19.2323 1.46154 19.4181 1.53853 19.5552 1.67558C19.6922 1.81262 19.7692 1.9985 19.7692 2.19231V5.11538C19.7692 5.3092 19.6922 5.49507 19.5552 5.63212C19.4181 5.76916 19.2323 5.84615 19.0385 5.84615H15.8231C15.6521 5.84623 15.4867 5.90622 15.3554 6.01569L13.9231 7.20831V6.57692C13.9231 6.38311 13.8461 6.19724 13.709 6.06019C13.572 5.92315 13.3861 5.84615 13.1923 5.84615C12.9985 5.84615 12.8126 5.76916 12.6756 5.63212C12.5385 5.49507 12.4615 5.3092 12.4615 5.11538V2.19231ZM3.6923 7.30769C3.6923 6.53244 4.00027 5.78895 4.54845 5.24076C5.09664 4.69258 5.84013 4.38462 6.61538 4.38462C7.39063 4.38462 8.13412 4.69258 8.68231 5.24076C9.23049 5.78895 9.53846 6.53244 9.53846 7.30769C9.53846 8.08294 9.23049 8.82644 8.68231 9.37462C8.13412 9.9228 7.39063 10.2308 6.61538 10.2308C5.84013 10.2308 5.09664 9.9228 4.54845 9.37462C4.00027 8.82644 3.6923 8.08294 3.6923 7.30769ZM6.61538 5.84615C6.22776 5.84615 5.85601 6.00014 5.58192 6.27423C5.30782 6.54832 5.15384 6.92007 5.15384 7.30769C5.15384 7.69532 5.30782 8.06706 5.58192 8.34116C5.85601 8.61525 6.22776 8.76923 6.61538 8.76923C7.003 8.76923 7.37475 8.61525 7.64884 8.34116C7.92293 8.06706 8.07692 7.69532 8.07692 7.30769C8.07692 6.92007 7.92293 6.54832 7.64884 6.27423C7.37475 6.00014 7.003 5.84615 6.61538 5.84615ZM2.96153 11.6923H10.2692C10.8507 11.6923 11.4083 11.9233 11.8194 12.3344C12.2306 12.7456 12.4615 13.3032 12.4615 13.8846C12.4615 15.5157 11.7907 16.8223 10.6901 17.7065C9.60715 18.5762 8.15438 19 6.61538 19C5.07638 19 3.62361 18.5762 2.54061 17.7065C1.44153 16.8223 0.769226 15.5157 0.769226 13.8846C0.769226 13.3032 1.0002 12.7456 1.41134 12.3344C1.82248 11.9233 2.3801 11.6923 2.96153 11.6923ZM10.2692 13.1538H2.96153C2.76772 13.1538 2.58185 13.2308 2.4448 13.3679C2.30776 13.5049 2.23076 13.6908 2.23076 13.8846C2.23076 15.0787 2.70576 15.9644 3.45553 16.5665C4.2243 17.1833 5.32923 17.5385 6.61538 17.5385C7.90153 17.5385 9.00646 17.1833 9.77523 16.5665C10.525 15.9644 11 15.0787 11 13.8846C11 13.6908 10.923 13.5049 10.786 13.3679C10.6489 13.2308 10.463 13.1538 10.2692 13.1538Z" fill="#9B9B9B"/>
</g>
<defs>
<clipPath id="clip0_2_30">
<rect width="22" height="19" fill="white"/>
</clipPath>
</defs>
</svg>
