<svg width="22" height="19" viewBox="0 0 22 19" fill="none" xmlns="http://www.w3.org/2000/svg">
<g clip-path="url(#clip0_1_10)">
<path d="M20.3311 0.690756C20.6207 0.601696 20.9261 0.602227 21.2208 0.715546C21.496 0.818162 21.7166 1.00538 21.8543 1.26185L21.9085 1.3757L21.9489 1.49047C22.0309 1.76039 22.0186 2.05119 21.8809 2.32507L21.8754 2.33608L20.085 5.73416V15.2251C20.085 15.813 19.8665 16.3254 19.4699 16.74L19.289 16.9117C18.7813 17.3502 18.1663 17.5626 17.483 17.5627H4.51775C3.83483 17.5627 3.21992 17.3506 2.71175 16.9127C2.20069 16.4713 1.9148 15.8973 1.9148 15.2251V5.73416L0.125318 2.33608L0.121645 2.32966L0.118891 2.32323C-0.0371495 2.01102 -0.0327935 1.6766 0.0922642 1.37478C0.222183 1.06132 0.463019 0.834245 0.773533 0.715546C1.07074 0.602003 1.37801 0.604105 1.66873 0.693511C1.9587 0.782688 2.23568 0.964913 2.39774 1.27929L4.27628 4.86192H17.7235L19.6011 1.28113C19.762 0.967634 20.0368 0.782374 20.3302 0.691674L20.3311 0.690756ZM4.43512 15.1966C4.44751 15.2006 4.47341 15.2067 4.51867 15.2067H17.483C17.5273 15.2067 17.5526 15.2005 17.5647 15.1966V7.2179H4.43512V15.1966ZM13.4073 8.44914C13.6762 8.44914 13.9416 8.51995 14.1712 8.68235L14.2676 8.75764L14.3585 8.84394C14.5575 9.05483 14.6679 9.3257 14.6679 9.62713C14.6679 9.97151 14.5234 10.2757 14.2676 10.4966C14.0175 10.7126 13.7146 10.8051 13.4073 10.8051H8.59251C8.2853 10.8051 7.98109 10.7128 7.73037 10.4948C7.47677 10.2741 7.33381 9.97208 7.33189 9.6308C7.33001 9.28337 7.4762 8.97693 7.73404 8.7558C7.98364 8.5418 8.28507 8.44914 8.59251 8.44914H13.4073Z" fill="#9B9B9B"/>
</g>
<defs>
<clipPath id="clip0_1_10">
<rect width="22" height="19" fill="white"/>
</clipPath>
</defs>
</svg>
